<?xml version="1.0" encoding="utf-8"?>
<!-- Generator: Adobe Illustrator 28.2.0, SVG Export Plug-In . SVG Version: 6.00 Build 0)  -->
<svg version="1.1" id="Layer_1" xmlns="http://www.w3.org/2000/svg" xmlns:xlink="http://www.w3.org/1999/xlink" x="0px" y="0px"
	 viewBox="0 0 174 173" style="enable-background:new 0 0 174 173;" xml:space="preserve">
<style type="text/css">
	.st0{fill:#FFFFFF;}
</style>
<g>
	<path class="st0" d="M52.6,21.3c10.3-5.5,22-8.6,34.4-8.6c40.7,0,73.8,33.1,73.8,73.8c0,26.4-13.9,49.5-34.8,62.6l2.4,2
		c21.3-13.7,35.4-37.5,35.4-64.6c0-42.3-34.4-76.8-76.8-76.8c-13.4,0-25.9,3.4-36.9,9.5L52.6,21.3z"/>
	<path class="st0" d="M122.3,151.2c-10.5,5.8-22.5,9-35.3,9c-40.7,0-73.8-33.1-73.8-73.8c0-26.7,14.3-50.2,35.6-63.1l-2.4-2
		C24.7,34.9,10.2,59,10.2,86.5c0,42.3,34.4,76.8,76.8,76.8c13.7,0,26.6-3.6,37.8-10L122.3,151.2z"/>
</g>
</svg>
